<svg id="Layer_1" data-name="Layer 1" xmlns="http://www.w3.org/2000/svg" viewBox="0 0 74 74"><defs><style>.cls-1{fill:#6597cf;}</style></defs><path class="cls-1" d="M13.07,34.78a23.71,23.71,0,0,0,.22,3.15,16.51,16.51,0,0,1-4.12-2.26,1.89,1.89,0,0,0-1.92-.14,1.85,1.85,0,0,0-1,1.61,26.87,26.87,0,0,0,4,14.63L1.58,56V18.59L15,25.28A23.85,23.85,0,0,0,13.07,34.78Z"/><path class="cls-1" d="M67.79,37.14a1.85,1.85,0,0,0-1-1.61,1.87,1.87,0,0,0-1.92.15,16.76,16.76,0,0,1-4.12,2.25,23.56,23.56,0,0,0-1.9-13l13.61-6.41V56l-8.67-4.23A26.83,26.83,0,0,0,67.79,37.14Z"/><path class="cls-1" d="M57.73,22.85c-.18-.31-.36-.61-.55-.91a1.21,1.21,0,0,0-.34-.52A23.9,23.9,0,0,0,16.1,23.16l-13-6.47L37,.09,70.87,16.66Z"/><path class="cls-1" d="M56.19,47a1.2,1.2,0,0,0-1.66.27,21.5,21.5,0,0,1-6.87,6.19,8.59,8.59,0,0,1-1.4-4.88q0-.4,0-.81c0-.23.05-.45.08-.68a1.22,1.22,0,0,0,.07-.38v0a8.46,8.46,0,0,1,2.8-4.9,8.5,8.5,0,0,1,6-1.1c2.57.24,5.47.51,10.16-2.6a24.46,24.46,0,0,1-4.19,13.24,1.17,1.17,0,0,0-.28.37s0,0,0,0a12.78,12.78,0,0,1-5.22,4.42,6,6,0,0,1-6.34-1,23.9,23.9,0,0,0,7.07-6.53A1.18,1.18,0,0,0,56.19,47Z"/><path class="cls-1" d="M26.34,53.5a21.5,21.5,0,0,1-6.87-6.19A1.2,1.2,0,0,0,17.81,47a1.18,1.18,0,0,0-.27,1.65,24,24,0,0,0,7.06,6.53,6,6,0,0,1-6.33,1C13,54,8.64,45.88,8.56,38.13c4.69,3.1,7.58,2.84,10.16,2.6a8.51,8.51,0,0,1,6,1.1,8.58,8.58,0,0,1,2.95,6c0,.27,0,.53,0,.8A8.6,8.6,0,0,1,26.34,53.5Z"/><path class="cls-1" d="M44.93,35.2H42.49a7,7,0,0,1,0-14.09H53.66a21.53,21.53,0,0,0-28.61-4.27h3.3A3.5,3.5,0,0,1,32,20.48a3.51,3.51,0,0,1-3.61,3.63H23.82a.5.5,0,0,0-.51.5,5.74,5.74,0,0,1-5.73,5.74H15.9a21.45,21.45,0,0,0-.14,8.11,14.6,14.6,0,0,0,2.74-.09,10.82,10.82,0,0,1,7.6,1.5l.13.1a10.9,10.9,0,0,1,3.84,7.66c0,.33,0,.65,0,1a11.08,11.08,0,0,1-1.63,6c.55.23,1.11.44,1.67.63a3.54,3.54,0,0,1,3-1.73h.27v-.26a3.55,3.55,0,1,1,7.1,0v.26h.27a3.54,3.54,0,0,1,3,1.73c.56-.19,1.12-.4,1.67-.63a11.08,11.08,0,0,1-1.63-6c0-.24,0-.46,0-.69H36.15a5.41,5.41,0,0,1,0-10.82h8.78a1,1,0,1,0,0-1.91ZM28.18,35A3.78,3.78,0,1,1,32,31.18,3.79,3.79,0,0,1,28.18,35Zm5.36-17.07a2.9,2.9,0,1,1,2.9,2.91A2.9,2.9,0,0,1,33.54,17.89Z"/><path class="cls-1" d="M22.11,19.21h6.24a1.27,1.27,0,0,1,0,2.53H23.82A2.88,2.88,0,0,0,21,24.61,3.37,3.37,0,0,1,17.58,28h-1A21.67,21.67,0,0,1,22.11,19.21Z"/><path class="cls-1" d="M58.24,38.46a15.5,15.5,0,0,1-2.74-.09,10.82,10.82,0,0,0-7.6,1.5l-.13.1a10.83,10.83,0,0,0-3.5,5.59H36.15a3,3,0,1,1,0-6.08h8.78a3.33,3.33,0,0,0,0-6.65H42.49a4.68,4.68,0,0,1,0-9.35H55.35a21.45,21.45,0,0,1,2.89,15Z"/><path class="cls-1" d="M36.44,17.36a.54.54,0,1,1-.54.53A.54.54,0,0,1,36.44,17.36Z"/><path class="cls-1" d="M28.18,32.59a1.41,1.41,0,1,1,1.41-1.41A1.41,1.41,0,0,1,28.18,32.59Z"/><path class="cls-1" d="M40.82,55.84H38.18V53.21a1.18,1.18,0,1,0-2.36,0v2.63H33.18a1.19,1.19,0,0,0,0,2.37h2.64v2.63a1.18,1.18,0,0,0,2.36,0V58.21h2.64a1.19,1.19,0,0,0,0-2.37Z"/><path class="cls-1" d="M62.37,53.74a14.74,14.74,0,0,1-5.74,4.65,8.81,8.81,0,0,1-3.35.69,8.72,8.72,0,0,1-6.11-2.66h0a23.37,23.37,0,0,1-2.85,1.11,3.53,3.53,0,0,1-3.49,3h-.27v.27a3.54,3.54,0,0,1-2.37,3.33v9.74l32.73-16Z"/><path class="cls-1" d="M33.45,60.84v-.27h-.27a3.53,3.53,0,0,1-3.49-3,23.37,23.37,0,0,1-2.85-1.11,8.78,8.78,0,0,1-6.12,2.66,8.81,8.81,0,0,1-3.35-.69,14.64,14.64,0,0,1-5.75-4.66L3.09,57.9l32.73,16V64.17A3.54,3.54,0,0,1,33.45,60.84Z"/></svg>