<svg id="Layer_1" data-name="Layer 1" xmlns="http://www.w3.org/2000/svg" viewBox="0 0 170 74"><defs><style>.cls-1{fill:#fff;}.cls-2{fill:#81c560;}.cls-3{fill:#6597cf;}.cls-4{fill:#bf9a7a;}</style></defs><path class="cls-1" d="M94.92,32.74a6.1,6.1,0,0,1-.75.13,8.55,8.55,0,0,1-1,.06,4.61,4.61,0,0,1-.88-.07,1.55,1.55,0,0,1-.64-.27,1.11,1.11,0,0,1-.39-.55,2.54,2.54,0,0,1-.13-.91V20.88a1,1,0,0,1,.25-.71,1.66,1.66,0,0,1,.68-.4,7.8,7.8,0,0,1,1.69-.38,15,15,0,0,1,1.9-.12,7.17,7.17,0,0,1,4.59,1.28A4.25,4.25,0,0,1,101.82,24a5.31,5.31,0,0,1-.33,1.93,4,4,0,0,1-1,1.48,4.61,4.61,0,0,1-1.67,1,7.6,7.6,0,0,1-2.34.33H94.92Zm1.14-7a2.09,2.09,0,0,0,1.4-.42A1.62,1.62,0,0,0,98,24a1.6,1.6,0,0,0-.51-1.27A2.19,2.19,0,0,0,96,22.32h-.58a2.59,2.59,0,0,0-.47.05v3.37Z"/><path class="cls-1" d="M107.24,32.8l-.71.12a5.86,5.86,0,0,1-.94.08,4.47,4.47,0,0,1-.86-.07,1.37,1.37,0,0,1-.64-.26,1.22,1.22,0,0,1-.41-.53,2.38,2.38,0,0,1-.14-.88V18.64l.71-.12a6,6,0,0,1,1-.08,4.61,4.61,0,0,1,.86.07,1.47,1.47,0,0,1,.64.26,1.27,1.27,0,0,1,.4.53,2.42,2.42,0,0,1,.14.88Z"/><path class="cls-1" d="M113.92,21.92a9,9,0,0,1,2.15.24,5,5,0,0,1,1.65.73,3.22,3.22,0,0,1,1,1.24,3.93,3.93,0,0,1,.37,1.78v4.87a1.31,1.31,0,0,1-.31.92,3.3,3.3,0,0,1-.75.63,7.86,7.86,0,0,1-4,.84A9.38,9.38,0,0,1,112,33a5,5,0,0,1-1.59-.66,3,3,0,0,1-1-1.11,3.27,3.27,0,0,1-.36-1.56,2.94,2.94,0,0,1,.89-2.31,4.75,4.75,0,0,1,2.76-1l2.85-.31v-.15A.92.92,0,0,0,115,25a3.75,3.75,0,0,0-1.6-.27,7.78,7.78,0,0,0-1.61.17,8.78,8.78,0,0,0-1.42.44,1.55,1.55,0,0,1-.47-.6,1.92,1.92,0,0,1-.2-.84A1.38,1.38,0,0,1,110,23a2,2,0,0,1,.84-.58A6.4,6.4,0,0,1,112.3,22,13.36,13.36,0,0,1,113.92,21.92Zm.18,8.56a5,5,0,0,0,.81-.08,2,2,0,0,0,.67-.21V28.45l-1.57.13a2.48,2.48,0,0,0-1,.26.72.72,0,0,0-.39.66.86.86,0,0,0,.33.7A1.81,1.81,0,0,0,114.1,30.48Z"/><path class="cls-1" d="M128.11,26.12a1.22,1.22,0,0,0-.38-1,1.56,1.56,0,0,0-1-.31,3.12,3.12,0,0,0-.86.11,2.13,2.13,0,0,0-.73.32V32.8a4.06,4.06,0,0,1-.69.13,6.07,6.07,0,0,1-1,.07,4.54,4.54,0,0,1-.86-.07,1.47,1.47,0,0,1-.64-.26,1.21,1.21,0,0,1-.4-.53,2.19,2.19,0,0,1-.14-.88V24.73a1.67,1.67,0,0,1,.25-1,2.55,2.55,0,0,1,.68-.67,6.41,6.41,0,0,1,1.86-.85,8.85,8.85,0,0,1,2.5-.33A5.83,5.83,0,0,1,130.48,23a3.63,3.63,0,0,1,1.33,3V32.8a3.86,3.86,0,0,1-.69.13,6,6,0,0,1-1,.07,4.47,4.47,0,0,1-.86-.07,1.46,1.46,0,0,1-.65-.26,1.29,1.29,0,0,1-.4-.53,2.38,2.38,0,0,1-.14-.88Z"/><path class="cls-1" d="M139.69,33.17a8,8,0,0,1-2.39-.35,5.36,5.36,0,0,1-1.91-1.08,5,5,0,0,1-1.29-1.81,6.4,6.4,0,0,1-.46-2.54,6,6,0,0,1,.46-2.47,5.07,5.07,0,0,1,1.23-1.7,5,5,0,0,1,1.75-1,6.44,6.44,0,0,1,2-.32,6.09,6.09,0,0,1,2.1.35,5,5,0,0,1,1.63,1,4.32,4.32,0,0,1,1.07,1.46,4.5,4.5,0,0,1,.38,1.85,1.47,1.47,0,0,1-.42,1.13,2,2,0,0,1-1.15.5l-5.38.8a1.82,1.82,0,0,0,1,1.08,3.86,3.86,0,0,0,1.7.36,6.16,6.16,0,0,0,1.69-.23,5.28,5.28,0,0,0,1.29-.53,1.82,1.82,0,0,1,.59.61,1.59,1.59,0,0,1-.67,2.28,4.67,4.67,0,0,1-1.57.5A10.69,10.69,0,0,1,139.69,33.17Zm-.61-8.55a2.14,2.14,0,0,0-.91.18,1.78,1.78,0,0,0-.62.44,1.7,1.7,0,0,0-.35.61,2.75,2.75,0,0,0-.15.69l3.72-.61a1.6,1.6,0,0,0-1.69-1.31Z"/><path class="cls-1" d="M149.74,29.19a.9.9,0,0,0,.36.81,1.82,1.82,0,0,0,1,.24,4.08,4.08,0,0,0,.68-.06,3,3,0,0,0,.6-.14,2.28,2.28,0,0,1,.34.53,1.58,1.58,0,0,1,.14.71,1.67,1.67,0,0,1-.62,1.35,3.43,3.43,0,0,1-2.18.52,4.46,4.46,0,0,1-2.95-.87,3.5,3.5,0,0,1-1-2.83V20.14c.16,0,.39-.09.69-.14a5.7,5.7,0,0,1,.95-.08,2.76,2.76,0,0,1,1.49.34,1.58,1.58,0,0,1,.53,1.42v1.4h2.85a3.51,3.51,0,0,1,.25.6,2.43,2.43,0,0,1,.12.79,1.49,1.49,0,0,1-.34,1.1,1.22,1.22,0,0,1-.9.34h-2Z"/><path class="cls-1" d="M94.92,51a4.62,4.62,0,0,1-.75.13,6.86,6.86,0,0,1-1,.07,4.56,4.56,0,0,1-.88-.08,1.55,1.55,0,0,1-.64-.27,1.08,1.08,0,0,1-.39-.54,2.64,2.64,0,0,1-.13-.92V39.1a.92.92,0,0,1,.25-.7,1.79,1.79,0,0,1,.68-.41,8.44,8.44,0,0,1,1.69-.38,15,15,0,0,1,1.9-.12,7.11,7.11,0,0,1,4.59,1.29,4.22,4.22,0,0,1,1.59,3.48,5.3,5.3,0,0,1-.33,1.92,3.91,3.91,0,0,1-1,1.48,4.34,4.34,0,0,1-1.67,1,7.3,7.3,0,0,1-2.34.34H94.92Zm1.14-7a2,2,0,0,0,1.4-.43,1.89,1.89,0,0,0,0-2.56A2.19,2.19,0,0,0,96,40.54h-.58l-.47.05V44Z"/><path class="cls-1" d="M114.1,45.76a6.51,6.51,0,0,1-.42,2.41,4.83,4.83,0,0,1-1.16,1.77,5,5,0,0,1-1.8,1.09,7.07,7.07,0,0,1-2.33.37,6.57,6.57,0,0,1-2.32-.39,5.18,5.18,0,0,1-1.8-1.12,5,5,0,0,1-1.16-1.78,6.73,6.73,0,0,1,0-4.68,4.92,4.92,0,0,1,3-2.89,6.57,6.57,0,0,1,2.32-.39,6.36,6.36,0,0,1,2.33.4,5.35,5.35,0,0,1,1.8,1.13,5,5,0,0,1,1.16,1.78A6.08,6.08,0,0,1,114.1,45.76Zm-7.62,0a3.45,3.45,0,0,0,.51,2,1.66,1.66,0,0,0,1.43.7,1.61,1.61,0,0,0,1.4-.71,3.56,3.56,0,0,0,.49-2,3.47,3.47,0,0,0-.5-2,1.65,1.65,0,0,0-1.42-.71,1.64,1.64,0,0,0-1.41.71A3.47,3.47,0,0,0,106.48,45.76Z"/><path class="cls-1" d="M124.82,47.89a3,3,0,0,1-1.24,2.59,5.94,5.94,0,0,1-3.65.94,10,10,0,0,1-1.7-.13,5.05,5.05,0,0,1-1.34-.4,2.34,2.34,0,0,1-.87-.69,1.55,1.55,0,0,1-.31-1,1.71,1.71,0,0,1,.21-.88,2.2,2.2,0,0,1,.53-.6,8.78,8.78,0,0,0,1.44.62,6,6,0,0,0,1.89.27,2.2,2.2,0,0,0,1-.19.59.59,0,0,0,.36-.52.54.54,0,0,0-.26-.48,2.38,2.38,0,0,0-.87-.28l-.66-.14a6,6,0,0,1-2.81-1.16,2.83,2.83,0,0,1-.93-2.27,3.06,3.06,0,0,1,.35-1.46A3,3,0,0,1,117,41a5.12,5.12,0,0,1,1.51-.68,7.9,7.9,0,0,1,2-.23,9.06,9.06,0,0,1,1.51.12,5.44,5.44,0,0,1,1.23.35,2.32,2.32,0,0,1,.83.62,1.44,1.44,0,0,1,.3.91,1.91,1.91,0,0,1-.18.86,2,2,0,0,1-.47.6,2.39,2.39,0,0,0-.52-.23,7.07,7.07,0,0,0-.77-.22,7.6,7.6,0,0,0-.83-.16,4.51,4.51,0,0,0-.78-.07,3.26,3.26,0,0,0-1.11.16.54.54,0,0,0-.39.52.47.47,0,0,0,.22.39,2.66,2.66,0,0,0,.83.28l.67.15a6.44,6.44,0,0,1,3,1.32A2.84,2.84,0,0,1,124.82,47.89Z"/><path class="cls-1" d="M126.52,37.54a1.92,1.92,0,0,1,.56-1.4,2.2,2.2,0,0,1,2.93,0,2,2,0,0,1,0,2.79,2.2,2.2,0,0,1-2.93,0A1.92,1.92,0,0,1,126.52,37.54ZM130.39,51l-.7.12a6,6,0,0,1-.95.07,5.52,5.52,0,0,1-.86-.06,1.42,1.42,0,0,1-.64-.26,1.24,1.24,0,0,1-.4-.54,2.16,2.16,0,0,1-.14-.88V40.63l.7-.12a6,6,0,0,1,.95-.08,4.54,4.54,0,0,1,.86.07,1.42,1.42,0,0,1,.64.26,1.27,1.27,0,0,1,.4.53,2.22,2.22,0,0,1,.14.88Z"/><path class="cls-1" d="M136.44,47.42a.89.89,0,0,0,.36.8,1.83,1.83,0,0,0,1,.24,5.29,5.29,0,0,0,.67-.05,3.89,3.89,0,0,0,.61-.15,2.91,2.91,0,0,1,.34.54,1.65,1.65,0,0,1,.14.7,1.67,1.67,0,0,1-.62,1.35,3.45,3.45,0,0,1-2.19.53,4.46,4.46,0,0,1-3-.87,3.51,3.51,0,0,1-1-2.83V38.36l.68-.14a5.82,5.82,0,0,1,.95-.07,2.81,2.81,0,0,1,1.49.33c.36.23.53.7.53,1.43V41.3h2.85a3.46,3.46,0,0,1,.26.6,2.79,2.79,0,0,1,.11.79,1.52,1.52,0,0,1-.33,1.1,1.22,1.22,0,0,1-.91.34h-2Z"/><path class="cls-1" d="M141.36,37.54a1.92,1.92,0,0,1,.56-1.4,2.21,2.21,0,0,1,2.94,0,2,2,0,0,1,0,2.79,2.21,2.21,0,0,1-2.94,0A1.92,1.92,0,0,1,141.36,37.54ZM145.24,51l-.71.12a6,6,0,0,1-.95.07,5.61,5.61,0,0,1-.86-.06,1.42,1.42,0,0,1-.64-.26,1.24,1.24,0,0,1-.4-.54,2.16,2.16,0,0,1-.14-.88V40.63l.7-.12a6.09,6.09,0,0,1,.95-.08,4.47,4.47,0,0,1,.86.07,1.42,1.42,0,0,1,.64.26,1.19,1.19,0,0,1,.4.53,2.21,2.21,0,0,1,.15.88Z"/><path class="cls-1" d="M154.66,50.77a2.39,2.39,0,0,1-.89.39,5.41,5.41,0,0,1-1.33.15,4.29,4.29,0,0,1-1.47-.22,1.42,1.42,0,0,1-.86-.69c-.13-.25-.29-.59-.47-1s-.37-.93-.57-1.48-.42-1.12-.64-1.75-.42-1.24-.62-1.85-.37-1.19-.53-1.76-.29-1.07-.39-1.5a2.42,2.42,0,0,1,.82-.53,2.58,2.58,0,0,1,1.12-.23,2.3,2.3,0,0,1,1.25.31,2,2,0,0,1,.73,1.19l.85,3.33c.15.65.31,1.24.45,1.77s.26.94.33,1.23h.11q.4-1.61.87-3.57c.3-1.3.58-2.59.82-3.85a4,4,0,0,1,.84-.31,4.22,4.22,0,0,1,.91-.1,2.36,2.36,0,0,1,1.28.32,1.23,1.23,0,0,1,.52,1.13,4.56,4.56,0,0,1-.16,1c-.11.44-.25.94-.41,1.5s-.37,1.15-.59,1.77-.46,1.23-.69,1.83-.46,1.15-.68,1.66S154.83,50.43,154.66,50.77Z"/><path class="cls-1" d="M164.93,51.4a7.56,7.56,0,0,1-2.38-.36A5.41,5.41,0,0,1,160.63,50a5,5,0,0,1-1.28-1.8,6.48,6.48,0,0,1-.47-2.55,6,6,0,0,1,.47-2.47,4.9,4.9,0,0,1,1.23-1.7,5,5,0,0,1,1.74-1,6.48,6.48,0,0,1,2-.31,5.86,5.86,0,0,1,2.1.35,5,5,0,0,1,1.63,1,4.28,4.28,0,0,1,1.07,1.46,4.53,4.53,0,0,1,.38,1.85,1.5,1.5,0,0,1-.41,1.13,2.07,2.07,0,0,1-1.16.5l-5.37.81a1.79,1.79,0,0,0,1,1.08,4,4,0,0,0,1.69.35,6.16,6.16,0,0,0,1.69-.22,5.53,5.53,0,0,0,1.3-.54,1.89,1.89,0,0,1,.58.61,1.6,1.6,0,0,1-.67,2.29,5.16,5.16,0,0,1-1.57.5A12,12,0,0,1,164.93,51.4Zm-.61-8.55a2.07,2.07,0,0,0-.9.17,1.71,1.71,0,0,0-.62.45,1.79,1.79,0,0,0-.36.61,2.29,2.29,0,0,0-.14.68l3.72-.61a1.73,1.73,0,0,0-.48-.87A1.61,1.61,0,0,0,164.32,42.85Z"/><path class="cls-1" d="M12,34.78a23.71,23.71,0,0,0,.22,3.15,16.55,16.55,0,0,1-4.13-2.26,1.89,1.89,0,0,0-3,1.47,26.88,26.88,0,0,0,4,14.63L.5,56V18.59L14,25.28A23.85,23.85,0,0,0,12,34.78Z"/><path class="cls-1" d="M66.71,37.14a1.85,1.85,0,0,0-1-1.61,1.87,1.87,0,0,0-1.92.15,16.94,16.94,0,0,1-4.12,2.25,23.9,23.9,0,0,0-1.9-13l13.61-6.41V56l-8.67-4.23A26.83,26.83,0,0,0,66.71,37.14Z"/><path class="cls-1" d="M56.65,22.85c-.18-.31-.37-.61-.56-.91a1.19,1.19,0,0,0-.33-.52A23.91,23.91,0,0,0,15,23.16L2,16.69,35.92.09,69.78,16.66Z"/><path class="cls-2" d="M55.1,47a1.18,1.18,0,0,0-1.65.27,21.71,21.71,0,0,1-6.87,6.19,8.68,8.68,0,0,1-1.41-4.88q0-.4,0-.81c0-.23,0-.45.09-.68a1.22,1.22,0,0,0,.07-.38v0a8.5,8.5,0,0,1,2.79-4.9,8.53,8.53,0,0,1,6.05-1.1c2.57.24,5.47.51,10.16-2.6a24.46,24.46,0,0,1-4.19,13.24,1.17,1.17,0,0,0-.28.37s0,0,0,0a12.84,12.84,0,0,1-5.22,4.42,6,6,0,0,1-6.34-1,23.9,23.9,0,0,0,7.07-6.53A1.18,1.18,0,0,0,55.1,47Z"/><path class="cls-2" d="M25.26,53.5a21.64,21.64,0,0,1-6.88-6.19,1.18,1.18,0,0,0-1.92,1.38,24,24,0,0,0,7.06,6.53,6,6,0,0,1-6.34,1C11.87,54,7.56,45.88,7.48,38.13c4.69,3.1,7.58,2.84,10.16,2.6a8.51,8.51,0,0,1,6,1.1,8.58,8.58,0,0,1,2.95,6c0,.27,0,.53,0,.8A8.6,8.6,0,0,1,25.26,53.5Z"/><path class="cls-3" d="M43.85,35.2H41.41a7,7,0,0,1,0-14.09H52.58A21.53,21.53,0,0,0,24,16.84h3.3a3.5,3.5,0,0,1,3.6,3.63,3.51,3.51,0,0,1-3.6,3.63H22.74a.5.5,0,0,0-.51.5,5.74,5.74,0,0,1-5.73,5.74H14.82a21.45,21.45,0,0,0-.14,8.11,14.6,14.6,0,0,0,2.74-.09A10.8,10.8,0,0,1,25,39.87l.14.1A10.9,10.9,0,0,1,29,47.63c0,.33,0,.65,0,1a11.08,11.08,0,0,1-1.63,6c.54.23,1.1.44,1.67.63a3.54,3.54,0,0,1,3-1.73h.27v-.26a3.55,3.55,0,1,1,7.1,0v.26h.26a3.57,3.57,0,0,1,3,1.73c.56-.19,1.12-.4,1.67-.63a11.08,11.08,0,0,1-1.63-6c0-.24,0-.46,0-.69H35.06a5.41,5.41,0,0,1,0-10.82h8.79a1,1,0,1,0,0-1.91ZM27.1,35a3.78,3.78,0,1,1,3.77-3.78A3.78,3.78,0,0,1,27.1,35Zm5.35-17.07a2.91,2.91,0,1,1,2.91,2.91A2.91,2.91,0,0,1,32.45,17.89Z"/><path class="cls-4" d="M21,19.21h6.24a1.27,1.27,0,0,1,0,2.53H22.74a2.87,2.87,0,0,0-2.87,2.87A3.38,3.38,0,0,1,16.5,28h-1A21.56,21.56,0,0,1,21,19.21Z"/><path class="cls-4" d="M57.16,38.46a15.47,15.47,0,0,1-2.74-.09,10.82,10.82,0,0,0-7.6,1.5l-.14.1a10.87,10.87,0,0,0-3.49,5.59H35.06a3,3,0,0,1,0-6.08h8.79a3.33,3.33,0,0,0,0-6.65H41.41a4.68,4.68,0,1,1,0-9.35H54.27a21.45,21.45,0,0,1,2.89,15Z"/><path class="cls-4" d="M35.36,17.36a.54.54,0,1,1-.54.53A.54.54,0,0,1,35.36,17.36Z"/><path class="cls-4" d="M27.1,32.59a1.41,1.41,0,1,1,1.41-1.41A1.41,1.41,0,0,1,27.1,32.59Z"/><path class="cls-1" d="M39.73,55.84H37.1V53.21a1.19,1.19,0,1,0-2.37,0v2.63H32.1a1.19,1.19,0,0,0,0,2.37h2.63v2.63a1.19,1.19,0,0,0,2.37,0V58.21h2.63a1.19,1.19,0,1,0,0-2.37Z"/><path class="cls-1" d="M61.29,53.74a14.74,14.74,0,0,1-5.74,4.65,8.4,8.4,0,0,1-9.47-2h0a24,24,0,0,1-2.85,1.11,3.54,3.54,0,0,1-3.5,3h-.26v.27a3.54,3.54,0,0,1-2.37,3.33v9.74l32.72-16Z"/><path class="cls-1" d="M32.37,60.84v-.27H32.1a3.54,3.54,0,0,1-3.5-3,23.87,23.87,0,0,1-2.84-1.11,8.8,8.8,0,0,1-6.12,2.66,8.9,8.9,0,0,1-3.36-.69,14.68,14.68,0,0,1-5.74-4.66L2,57.9l32.72,16V64.17A3.54,3.54,0,0,1,32.37,60.84Z"/></svg>